<?xml version="1.0" encoding="UTF-8" standalone="no"?>
<!DOCTYPE svg PUBLIC "-//W3C//DTD SVG 1.1//EN" "http://www.w3.org/Graphics/SVG/1.1/DTD/svg11.dtd">
<svg width="100%" height="100%" viewBox="0 0 78 78" version="1.1" xmlns="http://www.w3.org/2000/svg" xmlns:xlink="http://www.w3.org/1999/xlink" xml:space="preserve" xmlns:serif="http://www.serif.com/" style="fill-rule:evenodd;clip-rule:evenodd;stroke-linejoin:round;stroke-miterlimit:2;">
    <g transform="matrix(1,0,0,1,-38,-42)">
        <g transform="matrix(1,0,0,1,0,26)">
            <g transform="matrix(1,0,0,1,-27.2812,-5.64705)">
                <circle cx="104.311" cy="60.647" r="38.975" style="fill:rgb(170,91,33);"/>
            </g>
            <g transform="matrix(1.43119,-1.16121,1.16121,1.43119,-87.2053,38.9713)">
                <path d="M57.591,45.673L70.047,66.341L45.134,66.341L57.591,45.673Z" style="fill:rgb(229,229,229);"/>
            </g>
            <g transform="matrix(1.84302,0,0,1.84302,-50.8114,-72.9919)">
                <path d="M70.754,56.282L84.979,71.88L56.53,71.88L70.754,56.282Z" style="fill:rgb(46,46,46);"/>
            </g>
            <g transform="matrix(0.554909,0.479579,-1.20512,1.39442,131.992,-71.5515)">
                <path d="M70.754,56.282L84.979,71.88L56.53,71.88L70.754,56.282Z" style="fill:rgb(255,134,45);"/>
            </g>
        </g>
    </g>
</svg>
